<svg width="295" height="295" viewBox="0 0 295 295" fill="none" xmlns="http://www.w3.org/2000/svg">
<rect width="295" height="295" rx="40" fill="#F8FF00"/>
<path d="M42.9285 85.8861C44.1185 84.9061 45.2385 84.3111 46.2885 84.101C47.4085 83.8211 49.6485 83.6811 53.0085 83.6811C56.0885 83.6811 58.2935 83.8211 59.6235 84.101C60.9535 84.3111 62.1785 84.7661 63.2985 85.4661C65.4685 86.7261 66.0635 87.5661 65.0835 87.986C64.3135 88.3361 62.8085 88.1261 60.5685 87.3561C58.3285 86.5861 55.7385 86.2711 52.7985 86.4111C49.9285 86.481 47.5485 87.0061 45.6585 87.986C44.1185 88.6861 42.8235 90.0511 41.7735 92.0811C40.7235 94.0411 40.3735 95.7911 40.7235 97.3311C41.7035 101.251 46.7085 103.981 55.7385 105.521C60.4985 106.361 63.9985 107.481 66.2385 108.881C68.5485 110.281 70.0885 112.276 70.8585 114.866C71.6985 118.016 71.2085 121.341 69.3885 124.841C67.6385 128.341 65.1885 130.756 62.0385 132.086C59.3785 133.206 56.3335 133.801 52.9035 133.871C49.4735 133.871 46.6735 133.381 44.5035 132.401C42.4035 131.421 41.6335 130.196 42.1935 128.726C42.4035 128.236 42.5435 127.956 42.6135 127.886C42.7535 127.746 42.9285 127.746 43.1385 127.886C43.4185 128.026 43.8735 128.341 44.5035 128.831C45.6235 129.881 47.8635 130.406 51.2235 130.406C55.8435 130.336 59.2735 129.671 61.5135 128.411C63.8235 127.151 65.7135 124.876 67.1835 121.586C67.8835 119.976 68.2335 118.891 68.2335 118.331C68.2335 117.771 67.8485 116.756 67.0785 115.286C64.9785 111.436 60.9535 109.266 55.0035 108.776C50.4535 108.356 46.3235 106.921 42.6135 104.471C38.9035 101.951 37.0135 99.3611 36.9435 96.701C36.9435 95.091 37.5385 93.2011 38.7285 91.0311C39.9185 88.8611 41.3185 87.1461 42.9285 85.8861Z" fill="black"/>
<path d="M93.9273 85.5711C94.3473 83.8211 94.8373 83.0161 95.3973 83.1561C96.1673 83.3661 96.5873 84.9761 96.6573 87.986C96.7973 90.9261 97.1123 94.0411 97.6023 97.3311L98.2323 102.371L101.172 102.161C103.762 101.951 106.317 102.056 108.837 102.476C111.357 102.896 112.617 103.386 112.617 103.946C112.617 104.646 112.092 105.136 111.042 105.416C110.062 105.696 107.542 106.081 103.482 106.571L98.1273 107.306L97.7073 121.376C97.4973 129.846 97.1473 134.396 96.6573 135.026C96.4473 135.306 96.1323 135.446 95.7123 135.446C94.9423 135.446 94.4873 135.026 94.3473 134.186C94.1373 133.066 94.0323 128.936 94.0323 121.796V108.146L87.9423 107.516C84.8623 107.236 82.6923 106.851 81.4323 106.361C80.1723 105.801 79.5423 105.031 79.5423 104.051C79.5423 103.421 81.8173 103.106 86.3673 103.106L93.1923 103.211V95.7561C93.2623 90.7861 93.5073 87.3911 93.9273 85.5711Z" fill="black"/>
<path d="M121.643 97.6461C121.993 97.1561 122.483 97.0161 123.113 97.2261C123.743 97.4361 124.093 101.391 124.163 109.091C124.233 115.461 124.618 120.186 125.318 123.266C126.018 126.276 127.348 129.181 129.308 131.981C130.778 134.151 132.528 135.936 134.558 137.336C136.658 138.666 138.373 139.156 139.703 138.806C141.593 138.316 143.413 137.021 145.163 134.921C146.913 132.821 148.278 130.266 149.258 127.256C150.098 124.736 150.588 122.706 150.728 121.166C150.868 119.626 150.833 117.246 150.623 114.026C150.203 108.986 149.783 105.451 149.363 103.421C148.593 100.201 149.433 98.5911 151.883 98.5911C153.073 98.5911 153.878 99.4661 154.298 101.216C154.788 102.896 155.033 106.011 155.033 110.561C155.033 114.551 155.243 118.226 155.663 121.586C156.153 124.946 157.063 129.391 158.393 134.921C159.233 138.421 158.883 140.101 157.343 139.961C156.993 139.961 156.608 139.821 156.188 139.541C155.208 138.911 154.683 137.406 154.613 135.026C154.403 131.736 153.843 130.231 152.933 130.511C152.513 130.651 152.093 131.211 151.673 132.191C150.973 133.801 149.293 135.866 146.633 138.386C142.153 142.726 138.338 144.056 135.188 142.376C133.858 141.676 132.108 140.311 129.938 138.281C127.768 136.181 126.473 134.676 126.053 133.766C125.773 133.066 125.248 132.121 124.478 130.931C123.778 129.741 123.148 128.551 122.588 127.361C122.098 126.101 121.713 124.771 121.433 123.371C121.083 121.341 120.943 116.721 121.013 109.511C121.083 102.231 121.293 98.2761 121.643 97.6461Z" fill="black"/>
<path d="M205.211 80.0061C206.121 77.6961 207.206 77.3811 208.466 79.0611C209.026 79.7611 209.516 80.7761 209.936 82.1061C210.706 84.3461 211.126 89.1761 211.196 96.5961C211.266 104.016 211.021 111.261 210.461 118.331C210.251 120.011 210.076 121.446 209.936 122.636C209.866 123.756 209.726 124.771 209.516 125.681C209.376 126.521 209.201 127.186 208.991 127.676C208.851 128.096 208.641 128.446 208.361 128.726C208.081 128.936 207.766 129.041 207.416 129.041C207.136 128.971 206.786 128.796 206.366 128.516C205.806 128.236 205.141 128.271 204.371 128.621C203.601 128.971 202.376 129.881 200.696 131.351C197.126 134.361 193.871 136.251 190.931 137.021C188.061 137.721 184.491 137.511 180.221 136.391C178.051 135.831 176.196 134.921 174.656 133.661C173.116 132.331 171.436 130.336 169.616 127.676C168.496 125.996 167.796 124.596 167.516 123.476C167.306 122.286 167.201 119.941 167.201 116.441C167.201 112.871 167.306 110.596 167.516 109.616C167.796 108.566 168.566 107.306 169.826 105.836C173.046 101.846 177.981 99.1861 184.631 97.8561C191.281 96.4561 196.671 96.9461 200.801 99.3261C202.551 100.376 203.566 100.761 203.846 100.481C204.196 100.201 204.371 97.0861 204.371 91.1361C204.371 85.1861 204.651 81.4761 205.211 80.0061ZM201.956 106.571C201.956 105.661 201.361 104.821 200.171 104.051C199.051 103.211 197.546 102.581 195.656 102.161C193.766 101.671 191.701 101.391 189.461 101.321C187.291 101.251 184.981 101.601 182.531 102.371C180.081 103.141 177.876 104.261 175.916 105.731C173.256 107.901 171.716 111.121 171.296 115.391C170.876 119.591 171.751 123.371 173.921 126.731C175.041 128.411 176.021 129.566 176.861 130.196C177.701 130.826 179.171 131.456 181.271 132.086C183.301 132.716 184.841 133.066 185.891 133.136C187.011 133.206 188.446 133.031 190.196 132.611C193.136 131.911 196.076 130.091 199.016 127.151C201.956 124.211 203.881 121.166 204.791 118.016C205.701 114.866 206.086 112.626 205.946 111.296C205.876 109.896 205.211 108.986 203.951 108.566C203.391 108.286 202.901 107.971 202.481 107.621C202.131 107.201 201.956 106.851 201.956 106.571Z" fill="black"/>
<path d="M254.858 99.3061C254.858 98.8161 254.858 98.0811 254.858 97.1011C255.068 93.0411 255.278 90.5211 255.488 89.5411C255.698 88.5611 256.293 88.1411 257.273 88.2811C258.183 88.4211 258.848 89.5761 259.268 91.7461C259.688 93.9161 259.758 96.4361 259.478 99.3061C259.198 102.036 258.813 108.511 258.323 118.731C257.973 126.781 257.588 132.381 257.168 135.531C256.818 138.681 256.223 141.236 255.383 143.196C254.543 145.226 253.003 147.746 250.763 150.756C248.873 153.136 246.738 154.991 244.358 156.321C241.978 157.721 239.563 158.421 237.113 158.421C234.383 158.421 231.443 157.021 228.293 154.221C225.213 151.491 223.673 148.936 223.673 146.556C223.673 145.086 223.918 144.351 224.408 144.351C224.968 144.351 225.248 144.701 225.248 145.401C225.248 146.521 226.193 147.816 228.083 149.286C230.043 150.756 232.248 151.946 234.698 152.856C237.218 153.836 239.213 154.186 240.683 153.906C243.343 153.346 246.423 150.511 249.923 145.401C250.553 144.561 251.148 143.196 251.708 141.306C252.268 139.416 252.723 137.421 253.073 135.321C253.493 133.151 253.808 131.051 254.018 129.021C254.228 126.991 254.263 125.311 254.123 123.981C254.053 122.651 253.773 121.986 253.283 121.986C252.723 121.986 251.918 122.651 250.868 123.981C249.748 125.311 247.788 126.711 244.988 128.181C242.258 129.581 240.088 130.281 238.478 130.281C236.798 130.281 234.768 129.056 232.388 126.606C229.868 124.016 227.873 121.041 226.403 117.681C225.003 114.321 223.708 109.526 222.518 103.296C221.608 98.6761 221.083 95.7011 220.943 94.3711C220.873 92.9711 221.118 91.9911 221.678 91.4311C222.658 90.4511 223.428 90.6961 223.988 92.1661C224.758 93.9161 225.983 99.7261 227.663 109.596C228.363 113.376 229.903 117.086 232.283 120.726C234.733 124.366 236.868 126.186 238.688 126.186C239.948 126.186 241.768 125.486 244.148 124.086C246.598 122.616 248.488 121.111 249.818 119.571C251.428 117.751 252.583 115.336 253.283 112.326C254.053 109.316 254.578 104.976 254.858 99.3061Z" fill="black"/>
<path d="M36 218.196L45.0554 163.651H68.706C72.8608 163.651 76.261 164.21 78.9066 165.329C81.57 166.447 83.4521 168.027 84.5529 170.069C85.6715 172.111 86 174.517 85.5384 177.287C85.1832 179.276 84.4197 181.096 83.2479 182.747C82.0938 184.38 80.6289 185.765 78.8533 186.902C77.0955 188.02 75.1335 188.793 72.9673 189.219L72.8608 189.751C75.2045 189.822 77.2465 190.408 78.9865 191.509C80.7266 192.592 82.005 194.102 82.8217 196.037C83.6385 197.955 83.8338 200.192 83.4077 202.749C82.9105 205.732 81.6942 208.386 79.7589 210.712C77.8235 213.038 75.3111 214.867 72.2216 216.199C69.1321 217.53 65.6165 218.196 61.6747 218.196H36ZM52.8324 206.371H59.7571C62.2074 206.371 64.1339 205.9 65.5366 204.959C66.957 204.018 67.8004 202.642 68.0668 200.831C68.2798 199.553 68.1733 198.469 67.7472 197.582C67.321 196.694 66.6019 196.019 65.5898 195.558C64.5778 195.096 63.3082 194.865 61.7813 194.865H54.6435L52.8324 206.371ZM56.2415 185.703H62.3139C63.5923 185.703 64.7642 185.499 65.8295 185.091C66.8949 184.682 67.7738 184.087 68.4663 183.306C69.1587 182.525 69.5938 181.584 69.7713 180.483C70.0376 178.778 69.6293 177.482 68.5462 176.594C67.4808 175.707 66.0426 175.263 64.2315 175.263H57.946L56.2415 185.703Z" fill="black"/>
<path d="M115.821 200.298L119.656 177.287H134.358L127.539 218.196H113.583L114.862 210.419H114.436C113.175 213.029 111.293 215.071 108.789 216.545C106.304 218.001 103.534 218.729 100.48 218.729C97.6211 218.729 95.233 218.072 93.3153 216.758C91.3977 215.444 90.0394 213.633 89.2404 211.325C88.4414 209.016 88.2816 206.371 88.761 203.388L93.1289 177.287H107.831L103.995 200.298C103.694 202.322 103.951 203.912 104.768 205.066C105.602 206.22 106.943 206.797 108.789 206.797C110.015 206.797 111.115 206.539 112.092 206.025C113.086 205.492 113.903 204.746 114.542 203.787C115.199 202.811 115.625 201.648 115.821 200.298Z" fill="black"/>
<path d="M149.772 218.729C146.86 218.729 144.303 217.965 142.101 216.438C139.917 214.911 138.346 212.594 137.387 209.487C136.446 206.38 136.366 202.465 137.147 197.742C137.964 192.805 139.394 188.793 141.435 185.703C143.495 182.614 145.857 180.35 148.52 178.912C151.201 177.473 153.891 176.754 156.59 176.754C158.614 176.754 160.328 177.109 161.73 177.82C163.151 178.512 164.278 179.444 165.113 180.616C165.947 181.77 166.515 183.04 166.817 184.425H167.03L170.493 163.651H185.194L176.139 218.196H161.544L162.662 211.484H162.343C161.544 212.869 160.523 214.112 159.28 215.213C158.055 216.296 156.643 217.157 155.045 217.797C153.447 218.418 151.689 218.729 149.772 218.729ZM157.069 207.436C158.419 207.436 159.644 207.045 160.745 206.264C161.846 205.465 162.778 204.347 163.541 202.908C164.305 201.452 164.846 199.73 165.166 197.742C165.503 195.717 165.53 193.986 165.246 192.548C164.962 191.092 164.394 189.982 163.541 189.219C162.707 188.438 161.615 188.047 160.265 188.047C158.916 188.047 157.7 188.438 156.617 189.219C155.533 189.982 154.619 191.092 153.873 192.548C153.145 193.986 152.613 195.717 152.275 197.742C151.938 199.766 151.894 201.506 152.142 202.962C152.408 204.4 152.959 205.51 153.793 206.291C154.628 207.054 155.72 207.436 157.069 207.436Z" fill="black"/>
<path d="M225.225 190.604H212.014C212.085 189.751 211.934 189.023 211.562 188.42C211.189 187.816 210.665 187.354 209.99 187.035C209.333 186.715 208.587 186.555 207.753 186.555C206.297 186.555 204.974 186.884 203.785 187.541C202.595 188.18 201.929 189.023 201.787 190.071C201.698 190.479 201.831 190.861 202.187 191.216C202.542 191.571 203.474 191.9 204.983 192.202L213.08 193.693C217.128 194.439 220.075 195.797 221.922 197.768C223.786 199.721 224.461 202.305 223.946 205.519C223.467 208.306 222.242 210.703 220.271 212.71C218.3 214.716 215.796 216.261 212.76 217.344C209.742 218.409 206.404 218.942 202.746 218.942C196.301 218.942 191.471 217.655 188.257 215.08C185.061 212.505 183.605 209.141 183.889 204.986H198.165C198.2 206.318 198.644 207.321 199.497 207.995C200.367 208.652 201.521 208.999 202.959 209.034C204.521 209.087 205.889 208.777 207.06 208.102C208.232 207.409 208.889 206.548 209.031 205.519C209.085 204.933 208.827 204.489 208.259 204.187C207.709 203.885 206.652 203.583 205.09 203.281L198.058 202.003C194.01 201.275 191.063 199.819 189.216 197.635C187.369 195.433 186.73 192.628 187.298 189.219C187.76 186.502 188.861 184.221 190.601 182.374C192.359 180.527 194.667 179.134 197.526 178.193C200.384 177.234 203.687 176.754 207.433 176.754C213.559 176.754 218.193 177.988 221.336 180.456C224.497 182.907 225.793 186.289 225.225 190.604Z" fill="black"/>
</svg>
