<?xml version="1.0" encoding="UTF-8"?><svg id="Layer_1" xmlns="http://www.w3.org/2000/svg" viewBox="0 0 500 500"><path d="m183.53,303.55c8.77-19.49,20.2-37.67,33.79-54.03,6.3-7.58,13.12-14.75,20.22-21.57l6.45,10.4c-1.28.48-2.56.96-3.83,1.44-42.02,15.97-81.6,38.06-117.4,65.01l-8.79-12.28c10.61-7.43,21.62-14.92,33.97-20.82,6.64-3.16,13.69-5.85,21.16-7.55,7.46-1.71,15.36-2.37,23.2-1.54,4.33.45,7.48,4.34,7.03,8.67-.2,1.9-1.06,3.58-2.33,4.82l-.04.04c-10.31,10.05-20.41,20.31-30.29,30.78-9.84,10.51-19.45,21.24-28.83,32.16-9.35,10.95-18.43,22.13-27.29,33.48-8.83,11.37-17.36,22.98-25.67,34.74-6.16,8.82-12.74,17.49-18.98,26.12-6.04,8.23-11.05,12.88-15.34,15.06-6.22,3.21-6.35-3.94.73-16.85,2.29-4.04,4.76-8.23,7.45-12.33,2.7-4.09,5.44-8.19,8.27-12.07,25.84-35.88,53.05-70.5,82.05-103.77,2-2.3,4.02-4.62,6.05-6.95,2.05-2.31,4.13-4.6,6.22-6.88,4.14-4.58,8.48-8.92,12.81-12.97,4.1-3.8,8.26-7.55,12.34-11.39l4.25,12.37c-5.8-.79-11.78-.48-17.72.74-5.94,1.21-11.81,3.29-17.55,5.91-11.5,5.26-22.37,12.54-33.33,20.01l-.14.09c-3.08,2.1-7.28,1.3-9.38-1.78-2.07-3.04-1.32-7.17,1.66-9.29l6.62-4.73c2.22-1.55,4.47-3.06,6.71-4.58,11.77-7.88,23.85-15.32,36.2-22.32,12.35-7,25-13.47,37.95-19.25,12.54-5.62,25.3-10.7,38.25-15.24l.1-.04c2.91-1.02,6.09.51,7.11,3.42.75,2.15.11,4.45-1.45,5.92-25.85,24.24-45.78,54.95-57.33,88.66-.41,1.19-.82,2.37-1.21,3.51l-.07.2c-.78,2.27-3.26,3.47-5.52,2.68-2.16-.75-3.35-3.05-2.77-5.23,2.41-8.96,4.86-17.45,6.91-25.71,2.08-8.25,3.8-16.31,5.6-24.03,1.7-7.59,5.03-7.07,5.32,2.06.16,6.45-.02,13.11-.67,19.85-.62,6.73-1.74,13.5-3.07,20.07-.73,3.57-1.56,7.12-2.43,10.68l-14.75-4.14c2.26-7.22,5.03-14.37,7.98-21.36-.05-.06-.1-.11-.17-.18Z"/><path d="m374.51,313.75c9.67-21.05,22.59-40.25,37.62-57.51,7.97-9.16,16.67-17.72,25.74-25.79,1.73-1.49,3.4-3.04,5.17-4.48l5.31-4.33,6.2,10.99c-24.22,9.56-48.34,19-71.67,29.85-11.65,5.43-23.11,11.2-34.16,17.52-11.04,6.33-21.7,13.21-31.53,20.95l-8.18-12.92c5.87-2.99,11.79-5.99,17.78-8.91,5.7-2.79,11.5-5.5,17.39-8.07,5.88-2.57,11.87-5.01,18-7.18,6.13-2.16,12.35-4.17,18.75-5.73,6.38-1.58,12.89-2.83,19.48-3.67,4.34-.55,8.31,2.52,8.87,6.86.36,2.85-.83,5.53-2.92,7.2l-.08.06c-10.18,8.09-20.23,16.35-30.05,24.88-9.78,8.57-19.46,17.27-28.84,26.28-9.37,9.02-18.63,18.17-27.55,27.64-8.95,9.44-17.72,19.05-26.18,28.93-3.83,4.36-7.62,8.78-11.52,13.11-3.85,4.37-7.69,8.72-11.49,13.03-3.58,4.18-6.88,7.34-9.78,9.81-2.9,2.45-5.51,4.11-7.84,5.15-3.38,1.51-4.88.41-4.42-2.74.23-1.57.95-3.66,2.16-6.17,1.21-2.52,2.91-5.48,5.18-8.73,1.43-2.07,2.92-4.16,4.45-6.26,1.53-2.1,3.18-4.16,4.81-6.24,1.65-2.07,3.3-4.15,5-6.18,1.72-2.01,3.44-4,5.13-5.97,31.4-36.01,64.94-69.8,100.57-101.5,3.35-2.94,6.74-5.91,10.14-8.89,3.45-2.92,6.92-5.82,10.4-8.63l5.87,14.15c-1.99.28-3.96.56-5.92.83-1.96.31-3.9.62-5.82.93-12.91,2.14-25.64,6.35-38.08,11.49-12.46,5.18-24.66,11.31-36.96,17.49h-.02c-3.36,1.7-7.45.34-9.14-3.02-1.49-2.96-.61-6.48,1.91-8.43,10.7-8.31,22.09-15.49,33.79-21.83,27.06-14.54,55.29-26.42,83.61-37.19,8.17-3.07,16.34-6.14,24.5-9.21l.09-.03c2.98-1.12,6.3.39,7.42,3.36.92,2.44.07,5.11-1.9,6.61-16.74,12.74-31.68,28.01-44.47,44.88-12.74,16.89-23.4,35.47-30.64,55.29l-.05.14c-.84,2.31-3.4,3.5-5.71,2.65-2.2-.8-3.38-3.18-2.75-5.4.53-1.88,1.03-3.78,1.6-5.65,3.06-10.48,6.82-20.36,11-29.55,4.18-9.19,8.82-17.68,13.79-25.34,4.62-7.03,7.38-5.13,4.23,3.89-4.41,12.8-8.98,26.15-13.02,39.48-2.01,6.67-4.08,13.42-5.9,20.2l-14.59-4.45,2.6-6.78c.89-2.25,1.89-4.44,2.81-6.67-.06-.06-.11-.12-.16-.19Z"/><path d="m283.02,101.76c15.35-14.61,31.73-28.53,49.93-40.14,9.64-6.15,19.84-11.59,30.37-16.23l1.43-.65,2.78,12.07c-23.74,1.53-47.29,4.54-70.11,10.25-22.83,5.67-44.84,14.12-65.88,24.71l-5.16-14.2c5.19-1.3,10.44-2.55,15.8-3.65,2.67-.55,5.36-1.05,7.95-1.52,2.59-.48,5.1-.95,7.62-1.48,3.76-.79,7.55-1.67,11.35-2.59l2.96-.71c1.26-.29,2.36-.48,3.47-.66,2.19-.35,4.27-.58,6.37-.79,4.18-.39,8.32-.63,12.54-.67,4.26-.01,8.42.02,13.38.86,4.28.72,7.17,4.78,6.44,9.06-.44,2.61-2.12,4.7-4.33,5.77l-.21.1c-12.74,6.06-25.32,12.45-37.72,19.17-12.36,6.79-24.55,13.91-36.54,21.34-11.95,7.5-23.69,15.33-35.23,23.45-11.49,8.19-22.75,16.7-33.78,25.5-4.19,3.46-8.56,6.76-12.85,10.13-4.27,3.39-8.65,6.64-12.82,10.04-8.11,6.38-14.21,9.61-18.98,10.62-3.45.75-4.73-.6-3.84-3.5.9-2.88,3.91-7.38,9.15-12.69,6.63-6.73,14.43-13.48,22.08-19.52,17.62-13.92,35.63-27.23,54.05-39.93,18.43-12.68,37.31-24.71,56.58-36.14,5.29-3.21,10.79-6.3,16.26-9.38,2.74-1.52,5.53-2.93,8.29-4.33,2.77-1.38,5.51-2.75,8.29-3.92,3.54-1.53,7.06-3.08,10.58-4.65l1.77,13.9c-2.41-.52-5.52-.77-8.57-.87-3.08-.09-6.24-.04-9.39.12-3.14.17-6.31.44-9.26.86-.38.05-.72.11-1.07.17-.35.06-.71.12-1,.18-.53.1-1.43.32-2.24.5l-4.9,1.14c-3.27.75-6.58,1.47-9.92,2.12-3.34.66-6.66,1.23-9.84,1.82-6.34,1.16-12.64,2.61-19.03,4.13l-.12.03c-3.64.87-7.3-1.38-8.17-5.02-.75-3.16.85-6.34,3.67-7.69,7.23-3.46,14.52-6.82,22.01-9.7,26.83-10.68,55.25-17.98,83.85-21.37,11.94-1.44,23.9-2.35,35.84-2.9h.12c3.11-.15,5.75,2.26,5.9,5.37.11,2.45-1.36,4.61-3.51,5.49-17.34,7.06-33.45,17.27-48.4,29.02-14.97,11.77-28.85,25.08-42.34,38.84-.68.69-1.37,1.39-2.02,2.05l-.12.12c-1.69,1.71-4.44,1.73-6.15.04-1.46-1.44-1.69-3.67-.66-5.35,5.14-8.46,10.82-15.85,16.5-22.78,5.7-6.9,11.48-13.21,17.19-19.04,2.76-2.82,4.73-3.72,5.49-2.87.75.83.27,3.44-2.02,7.41-6.47,11.22-13.91,22.4-20.8,33.5-2.02,3.27-4.08,6.54-5.95,9.79l-12.19-9.12c4.94-5.18,10.07-10.3,15.2-15.38-.03-.07-.05-.14-.09-.23Z"/></svg>