<svg width="224" height="141" viewBox="0 0 224 141" fill="none" xmlns="http://www.w3.org/2000/svg">
<path d="M6.92847 7.88605C8.11847 6.90605 9.23847 6.31105 10.2885 6.10105C11.4085 5.82105 13.6485 5.68106 17.0085 5.68106C20.0885 5.68106 22.2935 5.82105 23.6235 6.10105C24.9535 6.31105 26.1785 6.76605 27.2985 7.46605C29.4685 8.72605 30.0635 9.56605 29.0835 9.98605C28.3135 10.3361 26.8085 10.1261 24.5685 9.35605C22.3285 8.58605 19.7385 8.27105 16.7985 8.41105C13.9285 8.48105 11.5485 9.00605 9.65847 9.98605C8.11847 10.6861 6.82347 12.0511 5.77347 14.0811C4.72347 16.0411 4.37347 17.7911 4.72347 19.3311C5.70347 23.2511 10.7085 25.9811 19.7385 27.5211C24.4985 28.3611 27.9985 29.4811 30.2385 30.8811C32.5485 32.2811 34.0885 34.2761 34.8585 36.8661C35.6985 40.0161 35.2085 43.3411 33.3885 46.8411C31.6385 50.3411 29.1885 52.7561 26.0385 54.0861C23.3785 55.2061 20.3335 55.8011 16.9035 55.8711C13.4735 55.8711 10.6735 55.3811 8.50347 54.4011C6.40347 53.4211 5.63347 52.1961 6.19347 50.7261C6.40347 50.2361 6.54347 49.9561 6.61347 49.8861C6.75347 49.7461 6.92847 49.7461 7.13847 49.8861C7.41847 50.0261 7.87347 50.3411 8.50347 50.8311C9.62347 51.8811 11.8635 52.4061 15.2235 52.4061C19.8435 52.3361 23.2735 51.6711 25.5135 50.4111C27.8235 49.1511 29.7135 46.8761 31.1835 43.5861C31.8835 41.9761 32.2335 40.8911 32.2335 40.3311C32.2335 39.7711 31.8485 38.7561 31.0785 37.2861C28.9785 33.4361 24.9535 31.2661 19.0035 30.7761C14.4535 30.3561 10.3235 28.9211 6.61347 26.4711C2.90347 23.9511 1.01347 21.3611 0.943466 18.701C0.943466 17.091 1.53847 15.2011 2.72847 13.0311C3.91847 10.8611 5.31847 9.14605 6.92847 7.88605Z" fill="black"/>
<path d="M57.9273 7.57106C58.3473 5.82105 58.8373 5.01605 59.3973 5.15606C60.1673 5.36605 60.5873 6.97605 60.6573 9.98605C60.7973 12.9261 61.1123 16.0411 61.6023 19.3311L62.2323 24.3711L65.1723 24.1611C67.7623 23.9511 70.3173 24.0561 72.8373 24.4761C75.3573 24.8961 76.6173 25.3861 76.6173 25.9461C76.6173 26.6461 76.0923 27.1361 75.0423 27.4161C74.0623 27.6961 71.5423 28.0811 67.4823 28.5711L62.1273 29.3061L61.7073 43.3761C61.4973 51.8461 61.1473 56.3961 60.6573 57.0261C60.4473 57.3061 60.1323 57.4461 59.7123 57.4461C58.9423 57.4461 58.4873 57.0261 58.3473 56.1861C58.1373 55.0661 58.0323 50.9361 58.0323 43.7961V30.1461L51.9423 29.5161C48.8623 29.2361 46.6923 28.8511 45.4323 28.3611C44.1723 27.8011 43.5423 27.0311 43.5423 26.0511C43.5423 25.4211 45.8173 25.1061 50.3673 25.1061L57.1923 25.2111V17.7561C57.2623 12.7861 57.5073 9.39105 57.9273 7.57106Z" fill="black"/>
<path d="M85.6432 19.6461C85.9932 19.1561 86.4832 19.0161 87.1132 19.2261C87.7432 19.4361 88.0932 23.3911 88.1632 31.0911C88.2332 37.4611 88.6182 42.1861 89.3182 45.2661C90.0182 48.2761 91.3482 51.1811 93.3082 53.9811C94.7782 56.1511 96.5282 57.9361 98.5582 59.3361C100.658 60.6661 102.373 61.1561 103.703 60.8061C105.593 60.3161 107.413 59.0211 109.163 56.9211C110.913 54.8211 112.278 52.2661 113.258 49.2561C114.098 46.7361 114.588 44.7061 114.728 43.1661C114.868 41.6261 114.833 39.2461 114.623 36.0261C114.203 30.9861 113.783 27.4511 113.363 25.4211C112.593 22.2011 113.433 20.5911 115.883 20.5911C117.073 20.5911 117.878 21.4661 118.298 23.2161C118.788 24.8961 119.033 28.0111 119.033 32.5611C119.033 36.5511 119.243 40.2261 119.663 43.5861C120.153 46.9461 121.063 51.3911 122.393 56.9211C123.233 60.4211 122.883 62.1011 121.343 61.9611C120.993 61.9611 120.608 61.8211 120.188 61.5411C119.208 60.9111 118.683 59.4061 118.613 57.0261C118.403 53.7361 117.843 52.2311 116.933 52.5111C116.513 52.6511 116.093 53.2111 115.673 54.1911C114.973 55.8011 113.293 57.8661 110.633 60.3861C106.153 64.7261 102.338 66.0561 99.1882 64.3761C97.8582 63.6761 96.1082 62.3111 93.9382 60.2811C91.7682 58.1811 90.4732 56.6761 90.0532 55.7661C89.7732 55.0661 89.2482 54.1211 88.4782 52.9311C87.7782 51.7411 87.1482 50.5511 86.5882 49.3611C86.0982 48.1011 85.7132 46.7711 85.4332 45.3711C85.0832 43.3411 84.9432 38.7211 85.0132 31.5111C85.0832 24.2311 85.2932 20.2761 85.6432 19.6461Z" fill="black"/>
<path d="M169.211 2.00605C170.121 -0.303947 171.206 -0.618947 172.466 1.06105C173.026 1.76105 173.516 2.77605 173.936 4.10605C174.706 6.34605 175.126 11.1761 175.196 18.5961C175.266 26.0161 175.021 33.2611 174.461 40.3311C174.251 42.0111 174.076 43.4461 173.936 44.6361C173.866 45.7561 173.726 46.7711 173.516 47.6811C173.376 48.5211 173.201 49.1861 172.991 49.6761C172.851 50.0961 172.641 50.4461 172.361 50.7261C172.081 50.9361 171.766 51.0411 171.416 51.0411C171.136 50.9711 170.786 50.7961 170.366 50.5161C169.806 50.2361 169.141 50.2711 168.371 50.6211C167.601 50.9711 166.376 51.8811 164.696 53.3511C161.126 56.3611 157.871 58.2511 154.931 59.0211C152.061 59.7211 148.491 59.5111 144.221 58.3911C142.051 57.8311 140.196 56.9211 138.656 55.6611C137.116 54.3311 135.436 52.3361 133.616 49.6761C132.496 47.9961 131.796 46.5961 131.516 45.4761C131.306 44.2861 131.201 41.9411 131.201 38.4411C131.201 34.8711 131.306 32.5961 131.516 31.6161C131.796 30.5661 132.566 29.3061 133.826 27.8361C137.046 23.8461 141.981 21.1861 148.631 19.8561C155.281 18.4561 160.671 18.9461 164.801 21.3261C166.551 22.3761 167.566 22.7611 167.846 22.4811C168.196 22.2011 168.371 19.0861 168.371 13.1361C168.371 7.18605 168.651 3.47605 169.211 2.00605ZM165.956 28.5711C165.956 27.6611 165.361 26.8211 164.171 26.0511C163.051 25.2111 161.546 24.5811 159.656 24.1611C157.766 23.6711 155.701 23.3911 153.461 23.3211C151.291 23.2511 148.981 23.6011 146.531 24.3711C144.081 25.1411 141.876 26.2611 139.916 27.7311C137.256 29.9011 135.716 33.1211 135.296 37.3911C134.876 41.5911 135.751 45.3711 137.921 48.7311C139.041 50.4111 140.021 51.5661 140.861 52.1961C141.701 52.8261 143.171 53.4561 145.271 54.0861C147.301 54.7161 148.841 55.0661 149.891 55.1361C151.011 55.2061 152.446 55.0311 154.196 54.6111C157.136 53.9111 160.076 52.0911 163.016 49.1511C165.956 46.2111 167.881 43.1661 168.791 40.0161C169.701 36.8661 170.086 34.6261 169.946 33.2961C169.876 31.8961 169.211 30.9861 167.951 30.5661C167.391 30.2861 166.901 29.9711 166.481 29.6211C166.131 29.2011 165.956 28.8511 165.956 28.5711Z" fill="black"/>
<path d="M218.858 21.3061C218.858 20.8161 218.858 20.0811 218.858 19.1011C219.068 15.0411 219.278 12.5211 219.488 11.5411C219.698 10.5611 220.293 10.1411 221.273 10.2811C222.183 10.4211 222.848 11.5761 223.268 13.7461C223.688 15.9161 223.758 18.4361 223.478 21.3061C223.198 24.0361 222.813 30.5111 222.323 40.7311C221.973 48.7811 221.588 54.3811 221.168 57.5311C220.818 60.6811 220.223 63.2361 219.383 65.1961C218.543 67.2261 217.003 69.7461 214.763 72.7561C212.873 75.1361 210.738 76.9911 208.358 78.3211C205.978 79.7211 203.563 80.4211 201.113 80.4211C198.383 80.4211 195.443 79.0211 192.293 76.2211C189.213 73.4911 187.673 70.9361 187.673 68.5561C187.673 67.0861 187.918 66.3511 188.408 66.3511C188.968 66.3511 189.248 66.7011 189.248 67.4011C189.248 68.5211 190.193 69.8161 192.083 71.2861C194.043 72.7561 196.248 73.9461 198.698 74.8561C201.218 75.8361 203.213 76.1861 204.683 75.9061C207.343 75.3461 210.423 72.5111 213.923 67.4011C214.553 66.5611 215.148 65.1961 215.708 63.3061C216.268 61.4161 216.723 59.4211 217.073 57.3211C217.493 55.1511 217.808 53.0511 218.018 51.0211C218.228 48.9911 218.263 47.3111 218.123 45.9811C218.053 44.6511 217.773 43.9861 217.283 43.9861C216.723 43.9861 215.918 44.6511 214.868 45.9811C213.748 47.3111 211.788 48.7111 208.988 50.1811C206.258 51.5811 204.088 52.2811 202.478 52.2811C200.798 52.2811 198.768 51.0561 196.388 48.6061C193.868 46.0161 191.873 43.0411 190.403 39.6811C189.003 36.3211 187.708 31.5261 186.518 25.2961C185.608 20.6761 185.083 17.7011 184.943 16.3711C184.873 14.9711 185.118 13.9911 185.678 13.4311C186.658 12.4511 187.428 12.6961 187.988 14.1661C188.758 15.9161 189.983 21.7261 191.663 31.5961C192.363 35.3761 193.903 39.0861 196.283 42.7261C198.733 46.3661 200.868 48.1861 202.688 48.1861C203.948 48.1861 205.768 47.4861 208.148 46.0861C210.598 44.6161 212.488 43.1111 213.818 41.5711C215.428 39.7511 216.583 37.3361 217.283 34.3261C218.053 31.3161 218.578 26.9761 218.858 21.3061Z" fill="black"/>
<path d="M0 140.196L9.0554 85.6506H32.706C36.8608 85.6506 40.261 86.2099 42.9066 87.3285C45.57 88.4471 47.4521 90.0274 48.5529 92.0693C49.6715 94.1112 50 96.5171 49.5384 99.287C49.1832 101.276 48.4197 103.096 47.2479 104.747C46.0938 106.38 44.6289 107.765 42.8533 108.902C41.0955 110.02 39.1335 110.793 36.9673 111.219L36.8608 111.751C39.2045 111.822 41.2465 112.408 42.9865 113.509C44.7266 114.592 46.005 116.102 46.8217 118.037C47.6385 119.955 47.8338 122.192 47.4077 124.749C46.9105 127.732 45.6942 130.386 43.7589 132.712C41.8235 135.038 39.3111 136.867 36.2216 138.199C33.1321 139.53 29.6165 140.196 25.6747 140.196H0ZM16.8324 128.371H23.7571C26.2074 128.371 28.1339 127.9 29.5366 126.959C30.957 126.018 31.8004 124.642 32.0668 122.831C32.2798 121.553 32.1733 120.469 31.7472 119.582C31.321 118.694 30.6019 118.019 29.5898 117.558C28.5778 117.096 27.3082 116.865 25.7813 116.865H18.6435L16.8324 128.371ZM20.2415 107.703H26.3139C27.5923 107.703 28.7642 107.499 29.8295 107.091C30.8949 106.682 31.7738 106.087 32.4663 105.306C33.1587 104.525 33.5938 103.584 33.7713 102.483C34.0376 100.778 33.6293 99.4823 32.5462 98.5945C31.4808 97.7067 30.0426 97.2628 28.2315 97.2628H21.946L20.2415 107.703Z" fill="black"/>
<path d="M79.8207 122.298L83.6559 99.287H98.3576L91.5394 140.196H77.5835L78.8619 132.419H78.4357C77.1751 135.029 75.293 137.071 72.7894 138.545C70.3036 140.001 67.5337 140.729 64.4798 140.729C61.6211 140.729 59.233 140.072 57.3153 138.758C55.3977 137.444 54.0394 135.633 53.2404 133.325C52.4414 131.016 52.2816 128.371 52.761 125.388L57.1289 99.287H71.8306L67.9954 122.298C67.6935 124.322 67.951 125.912 68.7678 127.066C69.6023 128.22 70.9428 128.797 72.7894 128.797C74.0146 128.797 75.1154 128.539 76.092 128.025C77.0863 127.492 77.9031 126.746 78.5423 125.787C79.1992 124.811 79.6254 123.648 79.8207 122.298Z" fill="black"/>
<path d="M113.772 140.729C110.86 140.729 108.303 139.965 106.101 138.438C103.917 136.911 102.346 134.594 101.387 131.487C100.446 128.38 100.366 124.465 101.147 119.742C101.964 114.805 103.394 110.793 105.435 107.703C107.495 104.614 109.857 102.35 112.52 100.912C115.201 99.4734 117.891 98.7543 120.59 98.7543C122.614 98.7543 124.328 99.1094 125.73 99.8196C127.151 100.512 128.278 101.444 129.113 102.616C129.947 103.77 130.515 105.04 130.817 106.425H131.03L134.493 85.6506H149.194L140.139 140.196H125.544L126.662 133.484H126.343C125.544 134.869 124.523 136.112 123.28 137.213C122.055 138.296 120.643 139.157 119.045 139.797C117.447 140.418 115.689 140.729 113.772 140.729ZM121.069 129.436C122.419 129.436 123.644 129.045 124.745 128.264C125.846 127.465 126.778 126.347 127.541 124.908C128.305 123.452 128.846 121.73 129.166 119.742C129.503 117.717 129.53 115.986 129.246 114.548C128.962 113.092 128.394 111.982 127.541 111.219C126.707 110.438 125.615 110.047 124.265 110.047C122.916 110.047 121.7 110.438 120.617 111.219C119.533 111.982 118.619 113.092 117.873 114.548C117.145 115.986 116.613 117.717 116.275 119.742C115.938 121.766 115.894 123.506 116.142 124.962C116.408 126.4 116.959 127.51 117.793 128.291C118.628 129.054 119.72 129.436 121.069 129.436Z" fill="black"/>
<path d="M189.225 112.604H176.014C176.085 111.751 175.934 111.023 175.562 110.42C175.189 109.816 174.665 109.354 173.99 109.035C173.333 108.715 172.587 108.555 171.753 108.555C170.297 108.555 168.974 108.884 167.785 109.541C166.595 110.18 165.929 111.023 165.787 112.071C165.698 112.479 165.831 112.861 166.187 113.216C166.542 113.571 167.474 113.9 168.983 114.202L177.08 115.693C181.128 116.439 184.075 117.797 185.922 119.768C187.786 121.721 188.461 124.305 187.946 127.519C187.467 130.306 186.242 132.703 184.271 134.71C182.3 136.716 179.796 138.261 176.76 139.344C173.742 140.409 170.404 140.942 166.746 140.942C160.301 140.942 155.471 139.655 152.257 137.08C149.061 134.505 147.605 131.141 147.889 126.986H162.165C162.2 128.318 162.644 129.321 163.497 129.995C164.367 130.652 165.521 130.999 166.959 131.034C168.521 131.087 169.889 130.777 171.06 130.102C172.232 129.409 172.889 128.548 173.031 127.519C173.085 126.933 172.827 126.489 172.259 126.187C171.709 125.885 170.652 125.583 169.09 125.281L162.058 124.003C158.01 123.275 155.063 121.819 153.216 119.635C151.369 117.433 150.73 114.628 151.298 111.219C151.76 108.502 152.861 106.221 154.601 104.374C156.359 102.527 158.667 101.134 161.526 100.193C164.384 99.2337 167.687 98.7543 171.433 98.7543C177.559 98.7543 182.193 99.9883 185.336 102.456C188.497 104.907 189.793 108.289 189.225 112.604Z" fill="black"/>
</svg>
