<svg width="434" height="82" viewBox="0 0 434 82" fill="none" xmlns="http://www.w3.org/2000/svg">
<path d="M6.03499 8.69001C7.22499 7.71001 8.34499 7.11501 9.39499 6.905C10.515 6.62501 12.755 6.48501 16.115 6.48501C19.195 6.48501 21.4 6.62501 22.73 6.905C24.06 7.11501 25.285 7.57001 26.405 8.27001C28.575 9.53001 29.17 10.37 28.19 10.79C27.42 11.14 25.915 10.93 23.675 10.16C21.435 9.39001 18.845 9.07501 15.905 9.21501C13.035 9.285 10.655 9.81 8.76499 10.79C7.22499 11.49 5.92999 12.855 4.87999 14.885C3.82999 16.845 3.47999 18.595 3.82999 20.135C4.80999 24.055 9.81499 26.785 18.845 28.325C23.605 29.165 27.105 30.285 29.345 31.685C31.655 33.085 33.195 35.08 33.965 37.67C34.805 40.82 34.315 44.145 32.495 47.645C30.745 51.145 28.295 53.56 25.145 54.89C22.485 56.01 19.44 56.605 16.01 56.675C12.58 56.675 9.77999 56.185 7.60999 55.205C5.50999 54.225 4.73999 53 5.29999 51.53C5.50999 51.04 5.64999 50.76 5.71999 50.69C5.85999 50.55 6.03499 50.55 6.24499 50.69C6.52499 50.83 6.97999 51.145 7.60999 51.635C8.72999 52.685 10.97 53.21 14.33 53.21C18.95 53.14 22.38 52.475 24.62 51.215C26.93 49.955 28.82 47.68 30.29 44.39C30.99 42.78 31.34 41.695 31.34 41.135C31.34 40.575 30.955 39.56 30.185 38.09C28.085 34.24 24.06 32.07 18.11 31.58C13.56 31.16 9.42999 29.725 5.71999 27.275C2.00999 24.755 0.119988 22.165 0.0499878 19.505C0.0499878 17.895 0.644988 16.005 1.83499 13.835C3.02499 11.665 4.42499 9.95001 6.03499 8.69001Z" fill="black"/>
<path d="M57.0338 8.37501C57.4538 6.62501 57.9438 5.82001 58.5038 5.96001C59.2738 6.17001 59.6938 7.78001 59.7638 10.79C59.9038 13.73 60.2188 16.845 60.7088 20.135L61.3388 25.175L64.2788 24.965C66.8688 24.755 69.4238 24.86 71.9438 25.28C74.4638 25.7 75.7238 26.19 75.7238 26.75C75.7238 27.45 75.1988 27.94 74.1488 28.22C73.1688 28.5 70.6488 28.885 66.5888 29.375L61.2338 30.11L60.8138 44.18C60.6038 52.65 60.2538 57.2 59.7638 57.83C59.5538 58.11 59.2388 58.25 58.8188 58.25C58.0488 58.25 57.5938 57.83 57.4538 56.99C57.2438 55.87 57.1388 51.74 57.1388 44.6V30.95L51.0488 30.32C47.9688 30.04 45.7988 29.655 44.5388 29.165C43.2788 28.605 42.6488 27.835 42.6488 26.855C42.6488 26.225 44.9238 25.91 49.4738 25.91L56.2988 26.015V18.56C56.3688 13.59 56.6138 10.195 57.0338 8.37501Z" fill="black"/>
<path d="M84.7497 20.45C85.0997 19.96 85.5897 19.82 86.2197 20.03C86.8497 20.24 87.1997 24.195 87.2697 31.895C87.3397 38.265 87.7247 42.99 88.4247 46.07C89.1247 49.08 90.4547 51.985 92.4147 54.785C93.8847 56.955 95.6347 58.74 97.6647 60.14C99.7647 61.47 101.48 61.96 102.81 61.61C104.7 61.12 106.52 59.825 108.27 57.725C110.02 55.625 111.385 53.07 112.365 50.06C113.205 47.54 113.695 45.51 113.835 43.97C113.975 42.43 113.94 40.05 113.73 36.83C113.31 31.79 112.89 28.255 112.47 26.225C111.7 23.005 112.54 21.395 114.99 21.395C116.18 21.395 116.985 22.27 117.405 24.02C117.895 25.7 118.14 28.815 118.14 33.365C118.14 37.355 118.35 41.03 118.77 44.39C119.26 47.75 120.17 52.195 121.5 57.725C122.34 61.225 121.99 62.905 120.45 62.765C120.1 62.765 119.715 62.625 119.295 62.345C118.315 61.715 117.79 60.21 117.72 57.83C117.51 54.54 116.95 53.035 116.04 53.315C115.62 53.455 115.2 54.015 114.78 54.995C114.08 56.605 112.4 58.67 109.74 61.19C105.26 65.53 101.445 66.86 98.2947 65.18C96.9647 64.48 95.2147 63.115 93.0447 61.085C90.8747 58.985 89.5797 57.48 89.1597 56.57C88.8797 55.87 88.3547 54.925 87.5847 53.735C86.8847 52.545 86.2547 51.355 85.6947 50.165C85.2047 48.905 84.8197 47.575 84.5397 46.175C84.1897 44.145 84.0497 39.525 84.1197 32.315C84.1897 25.035 84.3997 21.08 84.7497 20.45Z" fill="black"/>
<path d="M168.317 2.81001C169.227 0.500008 170.312 0.185008 171.572 1.86501C172.132 2.56501 172.622 3.58001 173.042 4.91001C173.812 7.15001 174.232 11.98 174.302 19.4C174.372 26.82 174.127 34.065 173.567 41.135C173.357 42.815 173.182 44.25 173.042 45.44C172.972 46.56 172.832 47.575 172.622 48.485C172.482 49.325 172.307 49.99 172.097 50.48C171.957 50.9 171.747 51.25 171.467 51.53C171.187 51.74 170.872 51.845 170.522 51.845C170.242 51.775 169.892 51.6 169.472 51.32C168.912 51.04 168.247 51.075 167.477 51.425C166.707 51.775 165.482 52.685 163.802 54.155C160.232 57.165 156.977 59.055 154.037 59.825C151.167 60.525 147.597 60.315 143.327 59.195C141.157 58.635 139.302 57.725 137.762 56.465C136.222 55.135 134.542 53.14 132.722 50.48C131.602 48.8 130.902 47.4 130.622 46.28C130.412 45.09 130.307 42.745 130.307 39.245C130.307 35.675 130.412 33.4 130.622 32.42C130.902 31.37 131.672 30.11 132.932 28.64C136.152 24.65 141.087 21.99 147.737 20.66C154.387 19.26 159.777 19.75 163.907 22.13C165.657 23.18 166.672 23.565 166.952 23.285C167.302 23.005 167.477 19.89 167.477 13.94C167.477 7.99001 167.757 4.28001 168.317 2.81001ZM165.062 29.375C165.062 28.465 164.467 27.625 163.277 26.855C162.157 26.015 160.652 25.385 158.762 24.965C156.872 24.475 154.807 24.195 152.567 24.125C150.397 24.055 148.087 24.405 145.637 25.175C143.187 25.945 140.982 27.065 139.022 28.535C136.362 30.705 134.822 33.925 134.402 38.195C133.982 42.395 134.857 46.175 137.027 49.535C138.147 51.215 139.127 52.37 139.967 53C140.807 53.63 142.277 54.26 144.377 54.89C146.407 55.52 147.947 55.87 148.997 55.94C150.117 56.01 151.552 55.835 153.302 55.415C156.242 54.715 159.182 52.895 162.122 49.955C165.062 47.015 166.987 43.97 167.897 40.82C168.807 37.67 169.192 35.43 169.052 34.1C168.982 32.7 168.317 31.79 167.057 31.37C166.497 31.09 166.007 30.775 165.587 30.425C165.237 30.005 165.062 29.655 165.062 29.375Z" fill="black"/>
<path d="M217.965 22.11C217.965 21.62 217.965 20.885 217.965 19.905C218.175 15.845 218.385 13.325 218.595 12.345C218.805 11.365 219.4 10.945 220.38 11.085C221.29 11.225 221.955 12.38 222.375 14.55C222.795 16.72 222.865 19.24 222.585 22.11C222.305 24.84 221.92 31.315 221.43 41.535C221.08 49.585 220.695 55.185 220.275 58.335C219.925 61.485 219.33 64.04 218.49 66C217.65 68.03 216.11 70.55 213.87 73.56C211.98 75.94 209.845 77.795 207.465 79.125C205.085 80.525 202.67 81.225 200.22 81.225C197.49 81.225 194.55 79.825 191.4 77.025C188.32 74.295 186.78 71.74 186.78 69.36C186.78 67.89 187.025 67.155 187.515 67.155C188.075 67.155 188.355 67.505 188.355 68.205C188.355 69.325 189.3 70.62 191.19 72.09C193.15 73.56 195.355 74.75 197.805 75.66C200.325 76.64 202.32 76.99 203.79 76.71C206.45 76.15 209.53 73.315 213.03 68.205C213.66 67.365 214.255 66 214.815 64.11C215.375 62.22 215.83 60.225 216.18 58.125C216.6 55.955 216.915 53.855 217.125 51.825C217.335 49.795 217.37 48.115 217.23 46.785C217.16 45.455 216.88 44.79 216.39 44.79C215.83 44.79 215.025 45.455 213.975 46.785C212.855 48.115 210.895 49.515 208.095 50.985C205.365 52.385 203.195 53.085 201.585 53.085C199.905 53.085 197.875 51.86 195.495 49.41C192.975 46.82 190.98 43.845 189.51 40.485C188.11 37.125 186.815 32.33 185.625 26.1C184.715 21.48 184.19 18.505 184.05 17.175C183.98 15.775 184.225 14.795 184.785 14.235C185.765 13.255 186.535 13.5 187.095 14.97C187.865 16.72 189.09 22.53 190.77 32.4C191.47 36.18 193.01 39.89 195.39 43.53C197.84 47.17 199.975 48.99 201.795 48.99C203.055 48.99 204.875 48.29 207.255 46.89C209.705 45.42 211.595 43.915 212.925 42.375C214.535 40.555 215.69 38.14 216.39 35.13C217.16 32.12 217.685 27.78 217.965 22.11Z" fill="black"/>
<path d="M244.107 60L253.162 5.45455H276.812C280.967 5.45455 284.368 6.01386 287.013 7.13247C289.676 8.25108 291.559 9.83133 292.659 11.8732C293.778 13.9151 294.107 16.321 293.645 19.0909C293.29 21.0796 292.526 22.8995 291.354 24.5508C290.2 26.1843 288.735 27.5693 286.96 28.7056C285.202 29.8242 283.24 30.5966 281.074 31.0227L280.967 31.5554C283.311 31.6264 285.353 32.2124 287.093 33.3132C288.833 34.3963 290.111 35.9056 290.928 37.8409C291.745 39.7585 291.94 41.9957 291.514 44.5526C291.017 47.5355 289.801 50.19 287.865 52.516C285.93 54.842 283.418 56.6708 280.328 58.0025C277.239 59.3342 273.723 60 269.781 60H244.107ZM260.939 48.1747H267.864C270.314 48.1747 272.24 47.7042 273.643 46.7631C275.064 45.8221 275.907 44.446 276.173 42.635C276.386 41.3565 276.28 40.2734 275.854 39.3857C275.428 38.4979 274.708 37.8232 273.696 37.3615C272.684 36.8999 271.415 36.669 269.888 36.669H262.75L260.939 48.1747ZM264.348 27.5071H270.42C271.699 27.5071 272.871 27.3029 273.936 26.8945C275.001 26.4862 275.88 25.8913 276.573 25.1101C277.265 24.3288 277.7 23.3878 277.878 22.2869C278.144 20.5824 277.736 19.2862 276.653 18.3984C275.587 17.5107 274.149 17.0668 272.338 17.0668H266.053L264.348 27.5071Z" fill="black"/>
<path d="M323.927 42.1023L327.762 19.0909H342.464L335.646 60H321.69L322.968 52.223H322.542C321.282 54.8331 319.399 56.875 316.896 58.3487C314.41 59.8047 311.64 60.5327 308.586 60.5327C305.728 60.5327 303.339 59.8757 301.422 58.5618C299.504 57.2479 298.146 55.4368 297.347 53.1286C296.548 50.8203 296.388 48.1747 296.868 45.1918L301.235 19.0909H315.937L312.102 42.1023C311.8 44.1264 312.058 45.7156 312.874 46.8697C313.709 48.0238 315.049 48.6009 316.896 48.6009C318.121 48.6009 319.222 48.3434 320.198 47.8285C321.193 47.2958 322.01 46.5501 322.649 45.5913C323.306 44.6147 323.732 43.4517 323.927 42.1023Z" fill="black"/>
<path d="M357.878 60.5327C354.966 60.5327 352.41 59.7692 350.208 58.2422C348.024 56.7152 346.452 54.3981 345.494 51.2908C344.553 48.1836 344.473 44.2685 345.254 39.5455C346.071 34.6094 347.5 30.5966 349.542 27.5071C351.602 24.4176 353.963 22.1538 356.626 20.7156C359.308 19.2774 361.998 18.5583 364.696 18.5583C366.721 18.5583 368.434 18.9134 369.837 19.6236C371.257 20.3161 372.385 21.2482 373.219 22.4201C374.054 23.5742 374.622 24.8438 374.924 26.2287H375.137L378.599 5.45455H393.301L384.245 60H369.65L370.769 53.2884H370.449C369.65 54.6733 368.629 55.9162 367.386 57.0171C366.161 58.1002 364.75 58.9613 363.152 59.6005C361.554 60.222 359.796 60.5327 357.878 60.5327ZM365.176 49.2401C366.525 49.2401 367.75 48.8494 368.851 48.0682C369.952 47.2692 370.884 46.1506 371.648 44.7124C372.411 43.2564 372.953 41.5341 373.272 39.5455C373.61 37.5213 373.636 35.7901 373.352 34.3519C373.068 32.896 372.5 31.7862 371.648 31.0227C370.813 30.2415 369.721 29.8509 368.372 29.8509C367.022 29.8509 365.806 30.2415 364.723 31.0227C363.64 31.7862 362.726 32.896 361.98 34.3519C361.252 35.7901 360.719 37.5213 360.382 39.5455C360.044 41.5696 360 43.3097 360.249 44.7656C360.515 46.2038 361.065 47.3136 361.9 48.0948C362.734 48.8583 363.826 49.2401 365.176 49.2401Z" fill="black"/>
<path d="M433.331 32.4077H420.121C420.192 31.5554 420.041 30.8274 419.668 30.2237C419.295 29.62 418.771 29.1584 418.097 28.8388C417.44 28.5192 416.694 28.3594 415.859 28.3594C414.404 28.3594 413.081 28.6879 411.891 29.3448C410.701 29.984 410.036 30.8274 409.894 31.875C409.805 32.2834 409.938 32.6651 410.293 33.0203C410.648 33.3754 411.58 33.7038 413.09 34.0057L421.186 35.4972C425.234 36.2429 428.182 37.6012 430.028 39.5721C431.893 41.5252 432.568 44.1087 432.053 47.3225C431.573 50.1101 430.348 52.5071 428.377 54.5135C426.406 56.5199 423.903 58.0646 420.867 59.1477C417.848 60.2131 414.51 60.7458 410.852 60.7458C404.407 60.7458 399.577 59.4585 396.364 56.8839C393.168 54.3093 391.712 50.9446 391.996 46.7898H406.271C406.307 48.1215 406.751 49.1247 407.603 49.7994C408.473 50.4563 409.627 50.8026 411.065 50.8381C412.628 50.8913 413.995 50.5806 415.167 49.9059C416.339 49.2134 416.996 48.3523 417.138 47.3225C417.191 46.7365 416.934 46.2926 416.365 45.9908C415.815 45.6889 414.759 45.3871 413.196 45.0852L406.165 43.8068C402.117 43.0788 399.169 41.6229 397.323 39.4389C395.476 37.2372 394.837 34.4318 395.405 31.0227C395.867 28.3061 396.967 26.0245 398.707 24.1779C400.465 22.3313 402.774 20.9375 405.632 19.9965C408.491 19.0377 411.793 18.5583 415.54 18.5583C421.666 18.5583 426.3 19.7923 429.443 22.2603C432.603 24.7106 433.899 28.0931 433.331 32.4077Z" fill="black"/>
</svg>
